<?xml version="1.0"?>
<svg width="1000pt" height="1000pt">
<g>
<path d="M 231.0 309.0 C 241.697634665 297.787001026 254.498771254 288.587584963 268.537621129 282.023940579 C 282.576471005 275.460296195 297.844171924 271.536566785 313.308114272 270.518126566 C 328.772056615 269.499686348 344.422478591 271.387178124 359.20088769 276.052942558 C 373.979296795 280.718706993 387.876364024 288.159798683 399.952184093 297.87294972 C 412.028004163 307.586100758 422.274954167 319.565179558 430.0 333.0 C 436.588744871 344.458730241 441.291483941 356.987217622 443.999471186 369.924793237 C 446.707458432 382.862368853 447.42485583 396.204783178 446.251392538 409.370535782 C 445.077929245 422.536288386 442.018116314 435.52338439 437.314164025 447.875991022 C 432.610211736 460.228597653 426.26619032 471.946506158 418.601853864 482.715536031 C 410.937517408 493.484565905 401.956070099 503.30570728 392.0 512.0 C 381.043350572 521.568008899 368.939981309 529.891602833 355.776568589 536.081879609 C 342.613155869 542.272156385 328.370822633 546.305242928 313.855544363 547.254799523 C 299.340266093 548.204356119 284.552397877 546.021242258 271.182356186 540.2908892 C 257.812314494 534.560536142 245.910532875 525.225265846 237.701149109 513.216894633 C 229.491765343 501.208523421 225.090753244 486.517859048 226.0 472.0 C 226.58128609 462.719133449 228.84568482 453.558308573 232.525559396 445.018349524 C 236.205433972 436.478390475 241.294024341 428.559408403 247.426647231 421.56917851 C 253.55927012 414.578948618 260.731068268 408.515321616 268.567954081 403.509764883 C 276.404839894 398.504208149 284.904016933 394.553669829 293.739237107 391.653452261 C 302.574457281 388.753234693 311.744635399 386.900335255 321.0 386.0 C 328.797791601 385.241475234 336.423514633 383.293523057 344.02765319 381.407259424 C 351.631791746 379.52099579 359.294169575 377.683105931 367.11075464 377.152152459 C 374.927339706 376.621198988 382.973100864 377.454157675 390.097702989 380.713138842 C 397.222305114 383.972120008 403.345901691 389.853182349 405.835981677 397.281534477 C 408.326061663 404.709886605 406.709001856 413.634535296 401.0 419.0 C 398.26025381 421.574866091 395.576313808 424.208349785 392.864202467 426.812307665 C 390.152091125 429.416265546 387.410638824 431.991755082 384.561717052 434.445280975 C 381.71279528 436.898806868 378.754967861 439.23109392 375.635227608 441.329513642 C 372.515487356 443.427933364 369.231968394 445.292373272 365.781536414 446.785913939 C 362.331104434 448.279454606 358.71170343 449.400498357 355.0 450.0 C 351.379438138 450.584770364 347.836260709 451.577481402 344.346441792 452.705128732 C 340.856622876 453.832776062 337.412280812 455.096909525 333.927577081 456.240266198 C 330.44287335 457.383622871 326.909969351 458.407927981 323.297640639 459.04157287 C 319.685311927 459.675217759 315.985268262 459.914204139 312.343138218 459.483723809 C 308.701008174 459.053243479 305.113429157 457.938293955 302.0 456.0 C 300.012923088 454.762918442 298.395401067 452.940245422 297.403239696 450.820230977 C 296.411078325 448.700216531 296.047866589 446.290529554 296.371045008 443.972254086 C 296.694223427 441.653978618 297.702622913 439.435500704 299.236768339 437.667664952 C 300.770913765 435.899829199 302.82525555 434.589030484 305.074906671 433.942566817 C 307.324557791 433.296103149 309.761380447 433.316312987 312.0 434.0 " fill="none" stroke="rgb(0,0,0)" />
</g>
</svg>
